<svg xmlns="http://www.w3.org/2000/svg" version="1.1" xmlns:xlink="http://www.w3.org/1999/xlink" xmlns:svgjs="http://svgjs.dev/svgjs" width="69" height="70"><svg width="69" height="70" viewBox="0 0 69 70" fill="none" xmlns="http://www.w3.org/2000/svg">
<path fill-rule="evenodd" clip-rule="evenodd" d="M34.4042 69.6169C53.4052 69.6169 68.8085 54.2136 68.8085 35.2127C68.8085 16.2118 53.4052 0.808472 34.4042 0.808472C15.4033 0.808472 0 16.2118 0 35.2127C0 54.2136 15.4033 69.6169 34.4042 69.6169ZM15.8749 16.5115C12.369 20.0174 12.369 25.7015 15.8749 29.2073C19.1545 32.4869 19.1545 37.8041 15.8749 41.0837C12.369 44.5896 12.369 50.2737 15.8749 53.7796C19.3808 57.2854 25.0649 57.2854 28.5707 53.7796C32.0766 50.2737 32.0766 44.5896 28.5707 41.0837C25.2973 37.8102 25.2863 32.4918 28.5597 29.2184C31.8332 25.9449 37.1406 25.9449 40.4141 29.2184C43.6876 32.4918 43.6766 37.8102 40.4031 41.0837C36.8972 44.5896 36.8972 50.2737 40.4031 53.7796C43.909 57.2854 49.5931 57.2854 53.0989 53.7796C56.6048 50.2737 56.6048 44.5896 53.0989 41.0837C49.8194 37.8041 49.8194 32.4869 53.0989 29.2073C56.6048 25.7015 56.6048 20.0174 53.0989 16.5115C49.5931 13.0056 43.9089 13.0056 40.4031 16.5115C37.1357 19.7789 31.8382 19.7789 28.5707 16.5115C25.0649 13.0056 19.3808 13.0056 15.8749 16.5115Z" fill="#0BA0A6"></path>
</svg><style>@media (prefers-color-scheme: light) { :root { filter: none; } }
@media (prefers-color-scheme: dark) { :root { filter: none; } }
</style></svg>