<svg width="48" height="48" viewBox="0 0 48 48" fill="none" xmlns="http://www.w3.org/2000/svg">
<circle cx="24.0003" cy="24.0003" r="21.7982" fill="#1F211F"/>
<path d="M7.41216 7.41213C11.6572 3.16709 17.5219 0.541692 23.9996 0.541692C30.4774 0.541692 36.3421 3.16709 40.5871 7.41213C44.8321 11.6572 47.4575 17.5218 47.4575 23.9996C47.4575 30.4774 44.8321 36.342 40.5871 40.5871C36.3421 44.8321 30.4774 47.4575 23.9996 47.4575C17.5219 47.4575 11.6572 44.8321 7.41216 40.5871C3.16712 36.342 0.541714 30.4774 0.541714 23.9996C0.541714 17.5218 3.16712 11.6572 7.41216 7.41213ZM23.9996 0C17.3721 0 11.3724 2.68671 7.02956 7.02954C2.68674 11.3724 2.67029e-05 17.3728 2.67029e-05 24.0004C2.67029e-05 30.6279 2.68596 36.6276 7.02956 40.9704C11.3724 45.3133 17.3729 48 23.9996 48C30.6264 48 36.6269 45.3133 40.9705 40.9704C45.3133 36.6276 48 30.6271 48 24.0004C48 17.3736 45.3133 11.3731 40.9705 7.02954C36.6276 2.68671 30.6272 0 23.9996 0Z" fill="#1A1A1A"/>
<path d="M16.9133 44.1598L26.1861 32.3693L36.9802 34.4529L40.4434 32.0511L36.3018 27.2623V24.0914L36.2354 23.9209L32.0489 19.2325L31.9086 19.1505L15.164 15.8018L15.037 15.8091L2.80442 19.6347L2.9572 20.1256L15.1271 16.3192L31.7249 19.6392L35.7867 24.1881V27.3568L35.8501 27.5251L39.6816 31.9552L36.8665 33.9075L25.9758 31.8054L16.5088 43.8424L16.9133 44.1598Z" fill="white"/>
<path d="M31.6295 25.5169C31.7683 25.3782 31.9602 25.2925 32.172 25.2925C32.3838 25.2925 32.5758 25.3782 32.7145 25.5169C32.8533 25.6557 32.9389 25.8476 32.9389 26.0594C32.9389 26.2713 32.8533 26.4632 32.7145 26.6019C32.5758 26.7407 32.3838 26.8263 32.172 26.8263C31.9602 26.8263 31.7683 26.7407 31.6295 26.6019C31.4907 26.4632 31.4051 26.2713 31.4051 26.0594C31.4051 25.8476 31.4915 25.6557 31.6295 25.5169ZM32.172 24.7773C31.8185 24.7773 31.4974 24.9205 31.2656 25.153C31.0339 25.3848 30.8899 25.7059 30.8899 26.0594C30.8899 26.413 31.0331 26.7341 31.2656 26.9658C31.4974 27.1976 31.8185 27.3415 32.172 27.3415C32.5256 27.3415 32.8466 27.1983 33.0784 26.9658C33.3102 26.7341 33.4541 26.413 33.4541 26.0594C33.4541 25.7059 33.3109 25.3848 33.0784 25.153C32.8459 24.9213 32.5256 24.7773 32.172 24.7773Z" fill="white"/>
<path d="M6.28337 35.5605L26.5215 32.2752L15.3259 15.9092L14.9015 16.1985L25.6409 31.898L6.20145 35.0534L6.28337 35.5605Z" fill="white"/>
<path d="M31.2363 25.5695L19.8658 22.8245L6.72829 34.5301L10.4306 21.3948L15.3006 16.231L14.9264 15.8789L10.0129 21.0885L9.95307 21.1955L5.99461 35.2379L6.41312 35.4992L20.0083 23.3869L31.116 26.0684L31.2363 25.5695Z" fill="white"/>
<path d="M33.2011 25.8235L36.1602 24.3207L35.9284 23.8623L32.9701 25.3651L33.2011 25.8235Z" fill="white"/>
<path d="M31.4183 25.3191L15.2435 15.833L14.9837 16.2751L31.1585 25.7613L31.4183 25.3191ZM37.1445 34.0502L32.9108 26.8131L32.4686 27.0729L36.7024 34.31L37.1445 34.0502Z" fill="white"/>
<path d="M32.1172 19.3884L32.3828 25.0205L31.8697 25.0447L31.6041 19.4126L32.1172 19.3884Z" fill="white"/>
<path d="M33.2258 26.1432L36.126 27.1152L35.9629 27.6016L33.0628 26.6296L33.2258 26.1432Z" fill="white"/>
<path d="M35.4082 33.649L20.0844 22.8948L19.984 22.8527L2.92788 19.6279L2.83341 20.1328L19.8342 23.3472L35.113 34.069L35.4082 33.649Z" fill="white"/>
<path d="M16.9623 44.0514L19.1611 33.1946L10.4087 21.1133L9.99239 21.4152L18.6135 33.3149L16.4597 43.951L16.9623 44.0514Z" fill="white"/>
<path d="M12.9183 34.1921L15.2871 43.1641L14.7904 43.2952L12.4216 34.3232L12.9183 34.1921Z" fill="white"/>
<path d="M8.40918 28.1103L2.85568 22.1279L2.47998 22.4778L8.03349 28.4601L8.40918 28.1103Z" fill="white"/>
<path d="M27.0039 14.4546L24.098 21.3626L24.4316 21.6991L30.5225 19.1792L27.1929 14.0059L27.0039 14.4546ZM24.8125 20.9861L27.2881 15.1027L29.7578 18.9401L24.8125 20.9861Z" fill="white"/>
</svg>
